<svg width="250" height="56" viewBox="0 0 250 56" fill="none" xmlns="http://www.w3.org/2000/svg">
<path d="M14.988 41V15.8H20.82V36.248H33.456V41H14.988Z" fill="#FF6600"/>
<path d="M48.5678 41.432C46.5758 41.432 44.7278 41.108 43.0238 40.46C41.3438 39.812 39.8798 38.9 38.6318 37.724C37.4078 36.548 36.4478 35.168 35.7518 33.584C35.0798 32 34.7438 30.272 34.7438 28.4C34.7438 26.528 35.0798 24.8 35.7518 23.216C36.4478 21.632 37.4198 20.252 38.6678 19.076C39.9158 17.9 41.3798 16.988 43.0598 16.34C44.7398 15.692 46.5638 15.368 48.5318 15.368C50.5238 15.368 52.3478 15.692 54.0038 16.34C55.6838 16.988 57.1358 17.9 58.3598 19.076C59.6078 20.252 60.5798 21.632 61.2758 23.216C61.9718 24.776 62.3198 26.504 62.3198 28.4C62.3198 30.272 61.9718 32.012 61.2758 33.62C60.5798 35.204 59.6078 36.584 58.3598 37.76C57.1358 38.912 55.6838 39.812 54.0038 40.46C52.3478 41.108 50.5358 41.432 48.5678 41.432ZM48.5318 36.464C49.6598 36.464 50.6918 36.272 51.6278 35.888C52.5878 35.504 53.4278 34.952 54.1478 34.232C54.8678 33.512 55.4198 32.66 55.8038 31.676C56.2118 30.692 56.4158 29.6 56.4158 28.4C56.4158 27.2 56.2118 26.108 55.8038 25.124C55.4198 24.14 54.8678 23.288 54.1478 22.568C53.4518 21.848 52.6238 21.296 51.6638 20.912C50.7038 20.528 49.6598 20.336 48.5318 20.336C47.4038 20.336 46.3598 20.528 45.3998 20.912C44.4638 21.296 43.6358 21.848 42.9158 22.568C42.1958 23.288 41.6318 24.14 41.2238 25.124C40.8398 26.108 40.6478 27.2 40.6478 28.4C40.6478 29.576 40.8398 30.668 41.2238 31.676C41.6318 32.66 42.1838 33.512 42.8798 34.232C43.5998 34.952 44.4398 35.504 45.3998 35.888C46.3598 36.272 47.4038 36.464 48.5318 36.464ZM78.7628 41.432C76.8188 41.432 75.0068 41.12 73.3268 40.496C71.6708 39.848 70.2308 38.936 69.0068 37.76C67.7828 36.584 66.8228 35.204 66.1268 33.62C65.4548 32.036 65.1188 30.296 65.1188 28.4C65.1188 26.504 65.4548 24.764 66.1268 23.18C66.8228 21.596 67.7828 20.216 69.0068 19.04C70.2548 17.864 71.7068 16.964 73.3628 16.34C75.0188 15.692 76.8308 15.368 78.7988 15.368C80.9828 15.368 82.9508 15.752 84.7028 16.52C86.4788 17.264 87.9668 18.368 89.1668 19.832L85.4228 23.288C84.5588 22.304 83.5988 21.572 82.5428 21.092C81.4868 20.588 80.3348 20.336 79.0868 20.336C77.9108 20.336 76.8308 20.528 75.8468 20.912C74.8628 21.296 74.0108 21.848 73.2908 22.568C72.5708 23.288 72.0068 24.14 71.5988 25.124C71.2148 26.108 71.0228 27.2 71.0228 28.4C71.0228 29.6 71.2148 30.692 71.5988 31.676C72.0068 32.66 72.5708 33.512 73.2908 34.232C74.0108 34.952 74.8628 35.504 75.8468 35.888C76.8308 36.272 77.9108 36.464 79.0868 36.464C80.3348 36.464 81.4868 36.224 82.5428 35.744C83.5988 35.24 84.5588 34.484 85.4228 33.476L89.1668 36.932C87.9668 38.396 86.4788 39.512 84.7028 40.28C82.9508 41.048 80.9708 41.432 78.7628 41.432ZM89.3362 41L100.568 15.8H106.328L117.596 41H111.476L102.26 18.752H104.564L95.3122 41H89.3362ZM94.9522 35.6L96.5002 31.172H109.46L111.044 35.6H94.9522ZM120.211 41V15.8H131.119C133.375 15.8 135.319 16.172 136.951 16.916C138.583 17.636 139.843 18.68 140.731 20.048C141.619 21.416 142.063 23.048 142.063 24.944C142.063 26.816 141.619 28.436 140.731 29.804C139.843 31.148 138.583 32.18 136.951 32.9C135.319 33.62 133.375 33.98 131.119 33.98H123.451L126.043 31.424V41H120.211ZM136.231 41L129.931 31.856H136.159L142.531 41H136.231ZM126.043 32.072L123.451 29.336H130.795C132.595 29.336 133.939 28.952 134.827 28.184C135.715 27.392 136.159 26.312 136.159 24.944C136.159 23.552 135.715 22.472 134.827 21.704C133.939 20.936 132.595 20.552 130.795 20.552H123.451L126.043 17.78V32.072ZM158.923 41.432C156.931 41.432 155.083 41.108 153.379 40.46C151.699 39.812 150.235 38.9 148.987 37.724C147.763 36.548 146.803 35.168 146.107 33.584C145.435 32 145.099 30.272 145.099 28.4C145.099 26.528 145.435 24.8 146.107 23.216C146.803 21.632 147.775 20.252 149.023 19.076C150.271 17.9 151.735 16.988 153.415 16.34C155.095 15.692 156.919 15.368 158.887 15.368C160.879 15.368 162.703 15.692 164.359 16.34C166.039 16.988 167.491 17.9 168.715 19.076C169.963 20.252 170.935 21.632 171.631 23.216C172.327 24.776 172.675 26.504 172.675 28.4C172.675 30.272 172.327 32.012 171.631 33.62C170.935 35.204 169.963 36.584 168.715 37.76C167.491 38.912 166.039 39.812 164.359 40.46C162.703 41.108 160.891 41.432 158.923 41.432ZM158.887 36.464C160.015 36.464 161.047 36.272 161.983 35.888C162.943 35.504 163.783 34.952 164.503 34.232C165.223 33.512 165.775 32.66 166.159 31.676C166.567 30.692 166.771 29.6 166.771 28.4C166.771 27.2 166.567 26.108 166.159 25.124C165.775 24.14 165.223 23.288 164.503 22.568C163.807 21.848 162.979 21.296 162.019 20.912C161.059 20.528 160.015 20.336 158.887 20.336C157.759 20.336 156.715 20.528 155.755 20.912C154.819 21.296 153.991 21.848 153.271 22.568C152.551 23.288 151.987 24.14 151.579 25.124C151.195 26.108 151.003 27.2 151.003 28.4C151.003 29.576 151.195 30.668 151.579 31.676C151.987 32.66 152.539 33.512 153.235 34.232C153.955 34.952 154.795 35.504 155.755 35.888C156.715 36.272 157.759 36.464 158.887 36.464ZM177.058 41V15.8H187.966C190.222 15.8 192.166 16.172 193.798 16.916C195.43 17.636 196.69 18.68 197.578 20.048C198.466 21.416 198.91 23.048 198.91 24.944C198.91 26.816 198.466 28.436 197.578 29.804C196.69 31.148 195.43 32.18 193.798 32.9C192.166 33.62 190.222 33.98 187.966 33.98H180.298L182.89 31.424V41H177.058ZM193.078 41L186.778 31.856H193.006L199.378 41H193.078ZM182.89 32.072L180.298 29.336H187.642C189.442 29.336 190.786 28.952 191.674 28.184C192.562 27.392 193.006 26.312 193.006 24.944C193.006 23.552 192.562 22.472 191.674 21.704C190.786 20.936 189.442 20.552 187.642 20.552H180.298L182.89 17.78V32.072ZM200.219 41L211.451 15.8H217.211L228.479 41H222.359L213.143 18.752H215.447L206.195 41H200.219ZM205.835 35.6L207.383 31.172H220.343L221.927 35.6H205.835Z" fill="black"/>
<path d="M231 12C234.866 12 238 15.134 238 19C238 22.866 234.866 26 231 26C227.134 26 224 22.866 224 19C224 15.134 227.134 12 231 12ZM231 16C229.343 16 228 17.3431 228 19C228 20.6569 229.343 22 231 22C232.657 22 234 20.6569 234 19C234 17.3431 232.657 16 231 16Z" fill="#FF6600"/>
</svg>
